# xmcd
#
# Track frame offsets: 
#        150
#        31089
#        57866
#        75980
#        93269
#        133020
#        160847
#        178024
#        201126
#        226365
#        251679
#
# Disc length: 3621 seconds
#
# Revision: 3
# Processed by: cddbd v1.5.2PL0 Copyright (c) Steve Scherf et al.
# Submitted via: ExactAudioCopy v1.3
#
DISCID=820e230b
DTITLE=Diverse System - AD:60
DYEAR=2012
DGENRE=Soundtrack
TTITLE0=b - コイタガエ
TTITLE1=tigerlily - Big Circle
TTITLE2=syzfonics - Nomads
TTITLE3=Atomic - L1D2
TTITLE4=eicateve - 終竟る
TTITLE5=RIC - Sleep Walker
TTITLE6=suge - 立ち寝プロ
TTITLE7=月代 彩 - あの小さな星空
TTITLE8=Daisuke Ohnuma - Madoromi
TTITLE9=IS Kingdom - Countdowning
TTITLE10=b - みらいちゃんと歩こう
EXTD=YEAR: 2012
EXTT0=
EXTT1=
EXTT2=
EXTT3=
EXTT4=
EXTT5=
EXTT6=
EXTT7=
EXTT8=
EXTT9=
EXTT10=
PLAYORDER=
